<svg width="121" height="43" viewBox="0 0 121 43" fill="none" xmlns="http://www.w3.org/2000/svg">
<g clip-path="url(#clip0_2032_22535)">
<path d="M63.4595 15.7737L60.7856 32.1007H60.1187C58.9806 32.1007 58.0108 31.8333 57.2062 31.2926C56.4016 30.7549 55.9121 30.0339 55.7438 29.1297C55.704 28.9164 55.6826 28.7422 55.6826 28.613C55.6826 28.3547 55.704 28.0753 55.7469 27.7749L58.4085 11.3848H58.9286C60.189 11.3848 61.217 11.6341 62.0155 12.1268C62.8139 12.6224 63.2973 13.3194 63.4656 14.2236C63.4992 14.3948 63.5176 14.5691 63.5268 14.7403C63.5421 15.0858 63.5207 15.4282 63.4625 15.7737H63.4595Z" fill="url(#paint0_linear_2032_22535)"/>
<path d="M90.9695 11.3848L87.5645 32.0977H87.0444C85.8329 32.0977 84.8172 31.8604 84.0004 31.3887C83.1835 30.9171 82.6879 30.2262 82.5166 29.325C82.4829 29.1537 82.4646 28.9825 82.4554 28.8083C82.4401 28.4658 82.4615 28.1203 82.5196 27.7749L83.8688 19.3846L75.4862 28.613L70.0804 19.3846L68.7312 27.7749C68.4803 29.1958 67.8103 30.2712 66.7243 31.0012C65.6382 31.7342 64.3165 32.0977 62.7593 32.0977H62.2393L65.6443 11.3848H66.7579C69.3522 11.3848 71.1205 12.1178 72.0659 13.5777L76.7742 21.0638L83.8535 13.5777C85.2333 12.1148 87.2463 11.3848 89.8896 11.3848H90.9634H90.9695Z" fill="url(#paint1_linear_2032_22535)"/>
<path d="M113.373 11.3848L109.956 32.0346H108.805C106.456 32.0346 104.752 31.3046 103.684 29.8417L98.7034 22.8723L96.773 20.2918L94.87 32.0376H89.0879L92.5052 11.3878H93.6922C96.0662 11.3878 97.7734 12.1208 98.8135 13.5807L103.858 20.484C104.596 21.5174 105.211 22.3556 105.703 23.0014L106.939 15.5814C107.377 12.7847 109.374 11.3878 112.932 11.3878H113.376L113.373 11.3848Z" fill="url(#paint2_linear_2032_22535)"/>
<path d="M65.2833 39.2364H64.6225L63.5365 37.0945H63.5212V39.2364H62.8604V35.8809H63.5212L64.6072 38.0258H64.6225V35.8809H65.2833V39.2364Z" fill="url(#paint3_linear_2032_22535)"/>
<path d="M70.9858 35.8789V38.0719C70.9858 38.4534 70.8757 38.7508 70.6524 38.9641C70.429 39.1774 70.1384 39.2855 69.7804 39.2855C69.4225 39.2855 69.1349 39.1774 68.9116 38.9641C68.6883 38.7508 68.5781 38.4534 68.5781 38.0719V35.8789H69.2389V38.0719C69.2389 38.3002 69.2879 38.4744 69.3858 38.5976C69.4837 38.7177 69.6152 38.7778 69.7835 38.7778C69.9518 38.7778 70.0864 38.7177 70.1843 38.5976C70.2791 38.4774 70.3281 38.3032 70.3281 38.0719V35.8789H70.9889H70.9858Z" fill="url(#paint4_linear_2032_22535)"/>
<path d="M76.3306 36.3896H75.5291V39.2374H74.8652V36.3896H74.082V35.8789H76.3306V36.3896Z" fill="url(#paint5_linear_2032_22535)"/>
<path d="M80.1061 37.8886V39.2344H79.4453V35.8789H80.4702C80.8098 35.8789 81.0759 35.966 81.2717 36.1403C81.4675 36.3145 81.5654 36.5548 81.5654 36.8672C81.5654 37.0415 81.5257 37.1917 81.4431 37.3178C81.3605 37.444 81.2411 37.5462 81.0882 37.6213C81.2656 37.6783 81.3941 37.7775 81.4737 37.9126C81.5532 38.0478 81.5899 38.2161 81.5899 38.4203V38.6637C81.5899 38.7568 81.6021 38.8559 81.6236 38.9581C81.645 39.0602 81.6848 39.1353 81.7398 39.1834V39.2314H81.0545C80.9995 39.1834 80.9658 39.1023 80.9505 38.9911C80.9352 38.88 80.9291 38.7688 80.9291 38.6577V38.4233C80.9291 38.2521 80.8924 38.1199 80.822 38.0268C80.7517 37.9337 80.6476 37.8856 80.513 37.8856H80.1153L80.1061 37.8886ZM80.1061 37.3839H80.4641C80.6079 37.3839 80.7149 37.3419 80.7884 37.2578C80.8618 37.1737 80.8985 37.0565 80.8985 36.9003C80.8985 36.7441 80.8618 36.6179 80.7884 36.5278C80.7149 36.4347 80.6079 36.3896 80.4671 36.3896H80.1061V37.3839Z" fill="url(#paint6_linear_2032_22535)"/>
<path d="M85.5817 39.2364H84.9209V35.8809H85.5817V39.2364Z" fill="url(#paint7_linear_2032_22535)"/>
<path d="M90.9264 36.3896H90.1248V39.2374H89.4609V36.3896H88.6777V35.8789H90.9264V36.3896Z" fill="url(#paint8_linear_2032_22535)"/>
<path d="M94.7389 39.2364H94.0781V35.8809H94.7389V39.2364Z" fill="url(#paint9_linear_2032_22535)"/>
<path d="M100.518 38.029C100.518 38.4226 100.404 38.732 100.178 38.9543C99.9515 39.1766 99.6487 39.2877 99.2724 39.2877C98.8961 39.2877 98.5932 39.1766 98.3699 38.9543C98.1435 38.732 98.0303 38.4256 98.0303 38.029V37.0918C98.0303 36.6983 98.1435 36.3888 98.3668 36.1665C98.5901 35.9442 98.893 35.8301 99.2693 35.8301C99.6456 35.8301 99.9485 35.9412 100.178 36.1665C100.404 36.3888 100.521 36.6983 100.521 37.0918V38.029H100.518ZM99.8567 37.0858C99.8567 36.8424 99.8078 36.6562 99.7068 36.533C99.6058 36.4099 99.459 36.3468 99.2693 36.3468C99.0796 36.3468 98.9328 36.4099 98.8349 36.533C98.737 36.6562 98.688 36.8424 98.688 37.0888V38.032C98.688 38.2814 98.737 38.4676 98.8349 38.5908C98.9328 38.714 99.0766 38.7771 99.2693 38.7771C99.4621 38.7771 99.6089 38.714 99.7068 38.5908C99.8047 38.4676 99.8567 38.2784 99.8567 38.032V37.0888V37.0858Z" fill="url(#paint10_linear_2032_22535)"/>
<path d="M106.193 39.2364H105.532L104.446 37.0945H104.43V39.2364H103.77V35.8809H104.43L105.516 38.0258H105.532V35.8809H106.193V39.2364Z" fill="url(#paint11_linear_2032_22535)"/>
<path d="M1.4345 26.5972C4.72635 17.7863 14.3663 3.81144 22.495 0.762323C24.7008 -0.355184 27.445 -0.192965 29.663 0.91553C38.7248 5.06713 47.7162 18.5193 50.852 28.3485C54.1592 38.6464 48.5208 41.9298 44.8496 42.6508C39.5937 43.9636 29.5896 40.6772 26.5915 39.2442C25.6767 38.8086 25.4687 39.106 24.5692 39.5086C19.916 41.6024 12.3992 44.279 5.80936 42.3144C2.32783 41.3441 -2.41721 37.1324 1.4345 26.5972ZM34.3499 30.5685C34.4723 30.6346 38.8533 26.5581 40.6277 24.4733C41.5149 23.4339 42.292 22.2803 42.9589 21.0937C43.9104 19.3995 43.5861 18.1798 41.9096 17.1554C41.001 16.5997 39.9455 16.2662 38.942 15.8727C37.3665 15.2509 36.8372 14.4578 36.9687 12.6914C37.6693 12.7875 38.3607 12.8837 39.3826 13.0219C38.7279 12.2288 34.7783 6.95367 29.865 4.03674C27.2431 2.41155 24.661 2.33344 22.0545 3.97365C17.2054 6.99573 13.213 11.7872 12.1483 13.139C13.1059 13.0249 14.2287 12.7845 15.0394 12.6914C15.223 14.3917 14.4428 15.2599 13.1395 15.7736C12.6378 15.9718 12.0994 16.083 11.5946 16.2752C8.12528 17.609 7.57766 19.1892 9.51422 22.2653C13.3476 27.8228 16.7985 29.9978 17.3645 30.3072V12.3459C18.4169 12.3459 19.3133 12.3219 20.2097 12.352C21.5772 12.4 22.2962 12.9317 22.7092 14.2475C22.9937 15.1517 25.1107 23.8304 25.8633 26.7354C25.8633 26.7354 28.0661 17.8464 28.889 14.5629C29.1674 13.4484 29.6814 12.4841 30.9327 12.358C32.034 12.2468 33.1629 12.388 34.3499 12.421V30.5625V30.5685ZM45.5104 22.4546C41.8515 27.8378 36.3936 32.6774 31.1805 35.7115L31.3702 16.7379H31.3426C29.8038 22.9082 28.0783 29.9677 26.5027 36.2852C28.1823 36.9611 29.7212 37.628 31.2937 38.2048C35.0047 39.5687 38.8166 40.4609 42.8121 40.1605C46.6944 39.8691 48.9155 38.298 48.9155 33.9661C48.9155 29.8686 47.3369 26.2277 45.5074 22.4516L45.5104 22.4546ZM6.33251 22.3735C4.43572 25.9453 3.11408 29.3639 2.80509 33.0649C2.41655 37.7392 4.64987 40.0583 9.43162 40.1875C14.8925 40.3377 19.8976 38.7395 24.7222 36.4144C24.8109 36.3724 25.1199 36.1891 25.1199 36.1891C23.7402 30.5505 21.9137 22.6378 20.4942 16.84C20.5829 17.7983 20.5003 22.5297 20.5064 24.4252C20.5126 26.2667 20.5431 28.1082 20.5309 29.9497C20.5187 31.8062 20.7114 36.081 20.5952 36.0059C15.122 32.0705 9.78956 28.3005 6.33251 22.3735Z" fill="url(#paint12_linear_2032_22535)"/>
<path d="M118.822 11.2764C120.024 11.2764 120.997 12.2317 121 13.4123C121 14.5929 120.024 15.5542 118.822 15.5512C117.616 15.5512 116.644 14.5959 116.644 13.4123C116.644 12.2317 117.616 11.2764 118.822 11.2734V11.2764ZM120.56 13.4153C120.56 12.4751 119.785 11.712 118.825 11.709C117.867 11.709 117.09 12.4721 117.087 13.4123C117.087 14.3526 117.864 15.1186 118.822 15.1186C119.779 15.1186 120.556 14.3556 120.56 13.4153Z" fill="url(#paint13_linear_2032_22535)"/>
<path d="M119.204 13.4366C119.241 13.4546 119.281 13.4666 119.314 13.4877C119.4 13.5357 119.461 13.6078 119.51 13.6889C119.559 13.7701 119.602 13.8512 119.645 13.9353C119.733 14.1095 119.822 14.2837 119.911 14.458C119.914 14.464 119.917 14.473 119.923 14.485C119.911 14.485 119.905 14.485 119.896 14.485C119.706 14.485 119.516 14.485 119.326 14.485C119.308 14.485 119.296 14.479 119.287 14.461C119.195 14.2747 119.1 14.0885 119.008 13.9052C118.99 13.8692 118.965 13.8331 118.944 13.7971C118.88 13.701 118.788 13.6469 118.672 13.6409C118.601 13.6379 118.528 13.6409 118.455 13.6409V14.485H117.867V12.25C117.867 12.25 117.879 12.25 117.886 12.25C118.21 12.25 118.537 12.25 118.861 12.25C119.008 12.25 119.152 12.271 119.287 12.3251C119.418 12.3762 119.522 12.4573 119.577 12.5865C119.623 12.6946 119.635 12.8057 119.629 12.9199C119.623 13.004 119.605 13.0851 119.565 13.1632C119.501 13.2834 119.4 13.3585 119.274 13.4096C119.25 13.4186 119.226 13.4276 119.201 13.4366H119.204ZM118.455 13.2413C118.455 13.2413 118.467 13.2413 118.47 13.2413C118.552 13.2413 118.638 13.2413 118.721 13.2413C118.761 13.2413 118.8 13.2353 118.84 13.2293C118.941 13.2083 119.011 13.1542 119.036 13.0521C119.051 12.986 119.051 12.9199 119.036 12.8538C119.018 12.7757 118.972 12.7186 118.889 12.6916C118.861 12.6826 118.834 12.6736 118.806 12.6736C118.69 12.6706 118.574 12.6676 118.458 12.6646C118.458 12.6646 118.458 12.6646 118.455 12.6646V13.2383V13.2413Z" fill="url(#paint14_linear_2032_22535)"/>
</g>
<defs>
<linearGradient id="paint0_linear_2032_22535" x1="-70.8823" y1="22.6199" x2="199.716" y2="20.7318" gradientUnits="userSpaceOnUse">
<stop offset="0.08" stop-color="#770EB9"/>
<stop offset="0.6" stop-color="#00A4C9"/>
<stop offset="0.96" stop-color="#61B90E"/>
</linearGradient>
<linearGradient id="paint1_linear_2032_22535" x1="-70.8819" y1="22.7341" x2="199.719" y2="20.846" gradientUnits="userSpaceOnUse">
<stop offset="0.08" stop-color="#770EB9"/>
<stop offset="0.6" stop-color="#00A4C9"/>
<stop offset="0.96" stop-color="#61B90E"/>
</linearGradient>
<linearGradient id="paint2_linear_2032_22535" x1="-70.882" y1="22.8663" x2="199.719" y2="20.9782" gradientUnits="userSpaceOnUse">
<stop offset="0.08" stop-color="#770EB9"/>
<stop offset="0.6" stop-color="#00A4C9"/>
<stop offset="0.96" stop-color="#61B90E"/>
</linearGradient>
<linearGradient id="paint3_linear_2032_22535" x1="-70.7716" y1="38.4643" x2="199.83" y2="36.5763" gradientUnits="userSpaceOnUse">
<stop offset="0.08" stop-color="#770EB9"/>
<stop offset="0.6" stop-color="#00A4C9"/>
<stop offset="0.96" stop-color="#61B90E"/>
</linearGradient>
<linearGradient id="paint4_linear_2032_22535" x1="-70.7716" y1="38.5225" x2="199.829" y2="36.6375" gradientUnits="userSpaceOnUse">
<stop offset="0.08" stop-color="#770EB9"/>
<stop offset="0.6" stop-color="#00A4C9"/>
<stop offset="0.96" stop-color="#61B90E"/>
</linearGradient>
<linearGradient id="paint5_linear_2032_22535" x1="-70.7718" y1="38.5375" x2="199.83" y2="36.6494" gradientUnits="userSpaceOnUse">
<stop offset="0.08" stop-color="#770EB9"/>
<stop offset="0.6" stop-color="#00A4C9"/>
<stop offset="0.96" stop-color="#61B90E"/>
</linearGradient>
<linearGradient id="paint6_linear_2032_22535" x1="-70.7714" y1="38.5765" x2="199.83" y2="36.6885" gradientUnits="userSpaceOnUse">
<stop offset="0.08" stop-color="#770EB9"/>
<stop offset="0.6" stop-color="#00A4C9"/>
<stop offset="0.96" stop-color="#61B90E"/>
</linearGradient>
<linearGradient id="paint7_linear_2032_22535" x1="-70.7723" y1="38.6055" x2="199.829" y2="36.7174" gradientUnits="userSpaceOnUse">
<stop offset="0.08" stop-color="#770EB9"/>
<stop offset="0.6" stop-color="#00A4C9"/>
<stop offset="0.96" stop-color="#61B90E"/>
</linearGradient>
<linearGradient id="paint8_linear_2032_22535" x1="-70.7722" y1="38.6366" x2="199.829" y2="36.7485" gradientUnits="userSpaceOnUse">
<stop offset="0.08" stop-color="#770EB9"/>
<stop offset="0.6" stop-color="#00A4C9"/>
<stop offset="0.96" stop-color="#61B90E"/>
</linearGradient>
<linearGradient id="paint9_linear_2032_22535" x1="-70.7717" y1="38.6686" x2="199.83" y2="36.7805" gradientUnits="userSpaceOnUse">
<stop offset="0.08" stop-color="#770EB9"/>
<stop offset="0.6" stop-color="#00A4C9"/>
<stop offset="0.96" stop-color="#61B90E"/>
</linearGradient>
<linearGradient id="paint10_linear_2032_22535" x1="-70.7722" y1="38.702" x2="199.83" y2="36.8139" gradientUnits="userSpaceOnUse">
<stop offset="0.08" stop-color="#770EB9"/>
<stop offset="0.6" stop-color="#00A4C9"/>
<stop offset="0.96" stop-color="#61B90E"/>
</linearGradient>
<linearGradient id="paint11_linear_2032_22535" x1="-70.7716" y1="38.7377" x2="199.829" y2="36.8528" gradientUnits="userSpaceOnUse">
<stop offset="0.08" stop-color="#770EB9"/>
<stop offset="0.6" stop-color="#00A4C9"/>
<stop offset="0.96" stop-color="#61B90E"/>
</linearGradient>
<linearGradient id="paint12_linear_2032_22535" x1="-70.8853" y1="22.1812" x2="199.713" y2="20.2931" gradientUnits="userSpaceOnUse">
<stop offset="0.08" stop-color="#770EB9"/>
<stop offset="0.6" stop-color="#00A4C9"/>
<stop offset="0.96" stop-color="#61B90E"/>
</linearGradient>
<linearGradient id="paint13_linear_2032_22535" x1="-70.9402" y1="14.689" x2="199.661" y2="12.8041" gradientUnits="userSpaceOnUse">
<stop offset="0.08" stop-color="#770EB9"/>
<stop offset="0.6" stop-color="#00A4C9"/>
<stop offset="0.96" stop-color="#61B90E"/>
</linearGradient>
<linearGradient id="paint14_linear_2032_22535" x1="-70.9401" y1="14.6412" x2="199.661" y2="12.7531" gradientUnits="userSpaceOnUse">
<stop offset="0.08" stop-color="#770EB9"/>
<stop offset="0.6" stop-color="#00A4C9"/>
<stop offset="0.96" stop-color="#61B90E"/>
</linearGradient>
<clipPath id="clip0_2032_22535">
<rect width="121" height="43" fill="white"/>
</clipPath>
</defs>
</svg>
