<svg width="454" height="384" viewBox="0 0 454 384" fill="none" xmlns="http://www.w3.org/2000/svg">
<g opacity="0.04" clip-path="url(#clip0_1218_12763)">
<path d="M12.5721 237.525C41.3838 158.842 125.791 34.0418 196.945 6.811C216.263 -3.15823 240.282 -1.71823 259.711 8.17715C339.067 45.2479 417.779 165.396 445.226 253.18C474.167 345.156 424.82 374.473 392.672 380.897C346.643 392.62 259.066 363.266 232.816 350.472C224.816 346.577 222.991 349.217 215.12 352.836C174.363 371.519 108.574 395.426 50.8586 377.906C20.388 369.229 -21.1797 331.623 12.5537 237.543L12.5721 237.525ZM300.762 272.971C301.813 273.58 340.192 237.156 355.731 218.546C363.492 209.26 370.312 198.959 376.156 188.362C384.488 173.223 381.649 162.331 366.976 153.174C359.012 148.208 349.796 145.236 341.003 141.709C327.196 136.171 322.569 129.082 323.731 113.297C329.85 114.165 335.915 115.014 344.874 116.269C339.141 109.18 304.56 62.0848 261.554 36.0356C238.586 21.5248 216.005 20.8418 193.166 35.4818C150.713 62.4725 115.745 105.266 106.436 117.322C114.823 116.306 124.648 114.165 131.745 113.316C133.349 128.509 126.51 136.245 115.1 140.842C110.694 142.614 105.993 143.593 101.569 145.328C71.1908 157.236 66.3981 171.359 83.357 198.811C116.924 248.436 147.137 267.857 152.096 270.626V110.251C161.313 110.251 169.165 110.029 176.999 110.306C188.981 110.731 195.249 115.476 198.899 127.236C201.405 135.322 219.931 212.823 226.494 238.762C226.494 238.762 245.775 159.396 252.983 130.079C255.434 120.109 259.932 111.525 270.882 110.399C280.541 109.402 290.421 110.676 300.799 110.953V272.971H300.762ZM398.479 200.528C366.441 248.62 318.643 291.82 273.001 318.922L274.66 149.482L274.439 149.445C260.964 204.571 245.867 267.617 232.079 324.054C246.789 330.091 260.264 336.054 274.034 341.205C306.532 353.371 339.897 361.346 374.884 358.669C408.875 356.066 428.323 342.054 428.323 303.359C428.323 266.768 414.497 234.257 398.497 200.528H398.479ZM55.467 199.826C38.8584 231.728 27.2821 262.245 24.5908 295.309C21.1806 337.069 40.7386 357.765 82.6197 358.928C130.436 360.257 174.271 345.986 216.484 325.236C217.277 324.848 219.95 323.242 219.95 323.242C207.857 272.879 191.875 202.226 179.451 150.442C180.225 159.008 179.506 201.248 179.562 218.177C179.599 234.626 179.875 251.057 179.783 267.506C179.691 284.085 181.368 322.263 180.336 321.58C132.427 286.448 85.7165 252.774 55.467 199.826Z" fill="#939393"/>
<path d="M422.497 93.6738C433.355 93.6738 442.147 102.462 442.166 113.354C442.166 124.228 433.355 133.071 422.497 133.071C411.621 133.071 402.829 124.265 402.829 113.372C402.829 102.48 411.603 93.6923 422.497 93.6738ZM438.184 113.391C438.184 104.732 431.179 97.6984 422.516 97.68C413.87 97.68 406.829 104.695 406.829 113.372C406.829 122.049 413.833 129.083 422.497 129.102C431.143 129.102 438.166 122.068 438.184 113.409V113.391Z" fill="#939393"/>
<path d="M425.963 113.576C426.295 113.723 426.645 113.871 426.977 114.056C427.751 114.499 428.304 115.163 428.746 115.92C429.189 116.659 429.576 117.416 429.963 118.191C430.774 119.797 431.567 121.403 432.359 123.01C432.396 123.083 432.433 123.139 432.47 123.25C432.359 123.25 432.285 123.25 432.212 123.25C430.497 123.25 428.783 123.25 427.069 123.25C426.884 123.25 426.792 123.194 426.719 123.028C425.889 121.311 425.041 119.613 424.193 117.896C424.027 117.545 423.806 117.231 423.603 116.899C423.032 116.013 422.202 115.514 421.152 115.459C420.506 115.422 419.861 115.459 419.198 115.459V123.231H413.907V102.646C413.907 102.646 414.018 102.646 414.073 102.646C417.004 102.646 419.953 102.646 422.884 102.665C424.193 102.665 425.502 102.868 426.737 103.366C427.917 103.828 428.857 104.585 429.373 105.766C429.797 106.745 429.889 107.779 429.834 108.85C429.779 109.625 429.631 110.382 429.262 111.083C428.691 112.191 427.769 112.893 426.645 113.354C426.424 113.446 426.202 113.52 425.981 113.594L425.963 113.576ZM419.198 111.766C419.198 111.766 419.29 111.766 419.345 111.766C420.101 111.766 420.857 111.766 421.612 111.766C421.981 111.766 422.331 111.711 422.7 111.656C423.603 111.471 424.248 110.973 424.451 110.031C424.58 109.422 424.599 108.813 424.451 108.203C424.285 107.483 423.861 106.948 423.142 106.708C422.903 106.634 422.645 106.542 422.405 106.542C421.354 106.505 420.304 106.486 419.253 106.468C419.253 106.468 419.235 106.468 419.216 106.486V111.766H419.198Z" fill="#939393"/>
</g>
<defs>
<clipPath id="clip0_1218_12763">
<rect width="454" height="384" fill="white"/>
</clipPath>
</defs>
</svg>
