<svg width="121" height="43" viewBox="0 0 121 43" fill="none" xmlns="http://www.w3.org/2000/svg">
<g clip-path="url(#clip0_1033_12744)">
<path d="M63.4599 15.7737L60.7861 32.1007H60.1192C58.9811 32.1007 58.0113 31.8333 57.2067 31.2926C56.4021 30.7549 55.9126 30.0339 55.7443 29.1297C55.7045 28.9164 55.6831 28.7422 55.6831 28.613C55.6831 28.3547 55.7045 28.0753 55.7474 27.7749L58.409 11.3848H58.9291C60.1895 11.3848 61.2175 11.6341 62.0159 12.1268C62.8144 12.6224 63.2978 13.3194 63.4661 14.2236C63.4997 14.3948 63.5181 14.5691 63.5273 14.7403C63.5426 15.0858 63.5211 15.4282 63.463 15.7737H63.4599Z" fill="url(#paint0_linear_1033_12744)"/>
<path d="M90.9695 11.3848L87.5645 32.0977H87.0444C85.8329 32.0977 84.8172 31.8604 84.0004 31.3887C83.1835 30.9171 82.6879 30.2262 82.5166 29.325C82.4829 29.1537 82.4646 28.9825 82.4554 28.8083C82.4401 28.4658 82.4615 28.1203 82.5196 27.7749L83.8688 19.3846L75.4862 28.613L70.0804 19.3846L68.7312 27.7749C68.4803 29.1958 67.8103 30.2712 66.7243 31.0012C65.6382 31.7342 64.3165 32.0977 62.7593 32.0977H62.2393L65.6443 11.3848H66.7579C69.3522 11.3848 71.1205 12.1178 72.0659 13.5777L76.7742 21.0638L83.8535 13.5777C85.2333 12.1148 87.2463 11.3848 89.8896 11.3848H90.9634H90.9695Z" fill="url(#paint1_linear_1033_12744)"/>
<path d="M113.373 11.3848L109.956 32.0346H108.805C106.456 32.0346 104.752 31.3046 103.684 29.8417L98.7034 22.8723L96.773 20.2918L94.87 32.0376H89.0879L92.5052 11.3878H93.6922C96.0662 11.3878 97.7734 12.1208 98.8135 13.5807L103.858 20.484C104.596 21.5174 105.211 22.3556 105.703 23.0014L106.939 15.5814C107.377 12.7847 109.374 11.3878 112.932 11.3878H113.376L113.373 11.3848Z" fill="url(#paint2_linear_1033_12744)"/>
<path d="M65.2833 39.2364H64.6225L63.5365 37.0945H63.5212V39.2364H62.8604V35.8809H63.5212L64.6072 38.0258H64.6225V35.8809H65.2833V39.2364Z" fill="url(#paint3_linear_1033_12744)"/>
<path d="M70.9858 35.8789V38.0719C70.9858 38.4534 70.8757 38.7508 70.6524 38.9641C70.429 39.1774 70.1384 39.2855 69.7804 39.2855C69.4225 39.2855 69.1349 39.1774 68.9116 38.9641C68.6883 38.7508 68.5781 38.4534 68.5781 38.0719V35.8789H69.2389V38.0719C69.2389 38.3002 69.2879 38.4744 69.3858 38.5976C69.4837 38.7177 69.6152 38.7778 69.7835 38.7778C69.9518 38.7778 70.0864 38.7177 70.1843 38.5976C70.2791 38.4774 70.3281 38.3032 70.3281 38.0719V35.8789H70.9889H70.9858Z" fill="url(#paint4_linear_1033_12744)"/>
<path d="M76.3306 36.3896H75.5291V39.2374H74.8652V36.3896H74.082V35.8789H76.3306V36.3896Z" fill="url(#paint5_linear_1033_12744)"/>
<path d="M80.1056 37.8886V39.2344H79.4448V35.8789H80.4697C80.8093 35.8789 81.0755 35.966 81.2713 36.1403C81.467 36.3145 81.5649 36.5548 81.5649 36.8672C81.5649 37.0415 81.5252 37.1917 81.4426 37.3178C81.36 37.444 81.2407 37.5462 81.0877 37.6213C81.2651 37.6783 81.3936 37.7775 81.4732 37.9126C81.5527 38.0478 81.5894 38.2161 81.5894 38.4203V38.6637C81.5894 38.7568 81.6017 38.8559 81.6231 38.9581C81.6445 39.0602 81.6843 39.1353 81.7393 39.1834V39.2314H81.054C80.999 39.1834 80.9653 39.1023 80.95 38.9911C80.9347 38.88 80.9286 38.7688 80.9286 38.6577V38.4233C80.9286 38.2521 80.8919 38.1199 80.8215 38.0268C80.7512 37.9337 80.6472 37.8856 80.5125 37.8856H80.1148L80.1056 37.8886ZM80.1056 37.3839H80.4636C80.6074 37.3839 80.7145 37.3419 80.7879 37.2578C80.8613 37.1737 80.898 37.0565 80.898 36.9003C80.898 36.7441 80.8613 36.6179 80.7879 36.5278C80.7145 36.4347 80.6074 36.3896 80.4666 36.3896H80.1056V37.3839Z" fill="url(#paint6_linear_1033_12744)"/>
<path d="M85.5822 39.2364H84.9214V35.8809H85.5822V39.2364Z" fill="url(#paint7_linear_1033_12744)"/>
<path d="M90.9268 36.3896H90.1253V39.2374H89.4614V36.3896H88.6782V35.8789H90.9268V36.3896Z" fill="url(#paint8_linear_1033_12744)"/>
<path d="M94.7385 39.2364H94.0776V35.8809H94.7385V39.2364Z" fill="url(#paint9_linear_1033_12744)"/>
<path d="M100.518 38.029C100.518 38.4226 100.405 38.732 100.178 38.9543C99.952 39.1766 99.6492 39.2877 99.2729 39.2877C98.8966 39.2877 98.5937 39.1766 98.3704 38.9543C98.144 38.732 98.0308 38.4256 98.0308 38.029V37.0918C98.0308 36.6983 98.144 36.3888 98.3673 36.1665C98.5906 35.9442 98.8935 35.8301 99.2698 35.8301C99.6461 35.8301 99.949 35.9412 100.178 36.1665C100.405 36.3888 100.521 36.6983 100.521 37.0918V38.029H100.518ZM99.8572 37.0858C99.8572 36.8424 99.8082 36.6562 99.7073 36.533C99.6063 36.4099 99.4595 36.3468 99.2698 36.3468C99.0801 36.3468 98.9333 36.4099 98.8354 36.533C98.7375 36.6562 98.6885 36.8424 98.6885 37.0888V38.032C98.6885 38.2814 98.7375 38.4676 98.8354 38.5908C98.9333 38.714 99.0771 38.7771 99.2698 38.7771C99.4625 38.7771 99.6094 38.714 99.7073 38.5908C99.8052 38.4676 99.8572 38.2784 99.8572 38.032V37.0888V37.0858Z" fill="url(#paint10_linear_1033_12744)"/>
<path d="M106.193 39.2364H105.532L104.446 37.0945H104.431V39.2364H103.77V35.8809H104.431L105.517 38.0258H105.532V35.8809H106.193V39.2364Z" fill="url(#paint11_linear_1033_12744)"/>
<path d="M1.43499 26.5972C4.72684 17.7863 14.3668 3.81144 22.4955 0.762323C24.7013 -0.355184 27.4455 -0.192965 29.6635 0.91553C38.7253 5.06713 47.7167 18.5193 50.8525 28.3485C54.1597 38.6464 48.5213 41.9298 44.8501 42.6508C39.5942 43.9636 29.5901 40.6772 26.592 39.2442C25.6772 38.8086 25.4692 39.106 24.5697 39.5086C19.9165 41.6024 12.3997 44.279 5.80985 42.3144C2.32832 41.3441 -2.41672 37.1324 1.43499 26.5972ZM34.3504 30.5685C34.4728 30.6346 38.8538 26.5581 40.6282 24.4733C41.5154 23.4339 42.2925 22.2803 42.9594 21.0937C43.9109 19.3995 43.5866 18.1798 41.9101 17.1554C41.0014 16.5997 39.946 16.2662 38.9425 15.8727C37.367 15.2509 36.8377 14.4578 36.9692 12.6914C37.6698 12.7875 38.3612 12.8837 39.3831 13.0219C38.7284 12.2288 34.7787 6.95367 29.8654 4.03674C27.2436 2.41155 24.6615 2.33344 22.0549 3.97365C17.2059 6.99573 13.2135 11.7872 12.1488 13.139C13.1064 13.0249 14.2292 12.7845 15.0399 12.6914C15.2234 14.3917 14.4433 15.2599 13.14 15.7736C12.6383 15.9718 12.0999 16.083 11.5951 16.2752C8.12577 17.609 7.57815 19.1892 9.51471 22.2653C13.3481 27.8228 16.799 29.9978 17.365 30.3072V12.3459C18.4174 12.3459 19.3138 12.3219 20.2102 12.352C21.5777 12.4 22.2966 12.9317 22.7096 14.2475C22.9942 15.1517 25.1112 23.8304 25.8638 26.7354C25.8638 26.7354 28.0666 17.8464 28.8895 14.5629C29.1679 13.4484 29.6819 12.4841 30.9332 12.358C32.0345 12.2468 33.1634 12.388 34.3504 12.421V30.5625V30.5685ZM45.5109 22.4546C41.8519 27.8378 36.3941 32.6774 31.181 35.7115L31.3706 16.7379H31.3431C29.8043 22.9082 28.0788 29.9677 26.5032 36.2852C28.1828 36.9611 29.7217 37.628 31.2942 38.2048C35.0051 39.5687 38.8171 40.4609 42.8126 40.1605C46.6949 39.8691 48.916 38.298 48.916 33.9661C48.916 29.8686 47.3373 26.2277 45.5079 22.4516L45.5109 22.4546ZM6.333 22.3735C4.43621 25.9453 3.11457 29.3639 2.80558 33.0649C2.41704 37.7392 4.65036 40.0583 9.43211 40.1875C14.893 40.3377 19.8981 38.7395 24.7227 36.4144C24.8114 36.3724 25.1204 36.1891 25.1204 36.1891C23.7406 30.5505 21.9142 22.6378 20.4947 16.84C20.5834 17.7983 20.5008 22.5297 20.5069 24.4252C20.513 26.2667 20.5436 28.1082 20.5314 29.9497C20.5192 31.8062 20.7119 36.081 20.5956 36.0059C15.1225 32.0705 9.79005 28.3005 6.333 22.3735Z" fill="url(#paint12_linear_1033_12744)"/>
<path d="M118.822 11.2764C120.024 11.2764 120.997 12.2317 121 13.4123C121 14.5929 120.024 15.5542 118.822 15.5512C117.616 15.5512 116.644 14.5959 116.644 13.4123C116.644 12.2317 117.616 11.2764 118.822 11.2734V11.2764ZM120.56 13.4153C120.56 12.4751 119.785 11.712 118.825 11.709C117.867 11.709 117.09 12.4721 117.087 13.4123C117.087 14.3526 117.864 15.1186 118.822 15.1186C119.779 15.1186 120.556 14.3556 120.56 13.4153Z" fill="url(#paint13_linear_1033_12744)"/>
<path d="M119.204 13.4366C119.241 13.4546 119.281 13.4666 119.314 13.4877C119.4 13.5357 119.461 13.6078 119.51 13.6889C119.559 13.7701 119.602 13.8512 119.645 13.9353C119.733 14.1095 119.822 14.2837 119.911 14.458C119.914 14.464 119.917 14.473 119.923 14.485C119.911 14.485 119.905 14.485 119.896 14.485C119.706 14.485 119.516 14.485 119.326 14.485C119.308 14.485 119.296 14.479 119.287 14.461C119.195 14.2747 119.1 14.0885 119.008 13.9052C118.99 13.8692 118.965 13.8331 118.944 13.7971C118.88 13.701 118.788 13.6469 118.672 13.6409C118.601 13.6379 118.528 13.6409 118.455 13.6409V14.485H117.867V12.25C117.867 12.25 117.879 12.25 117.886 12.25C118.21 12.25 118.537 12.25 118.861 12.25C119.008 12.25 119.152 12.271 119.287 12.3251C119.418 12.3762 119.522 12.4573 119.577 12.5865C119.623 12.6946 119.635 12.8057 119.629 12.9199C119.623 13.004 119.605 13.0851 119.565 13.1632C119.501 13.2834 119.4 13.3585 119.274 13.4096C119.25 13.4186 119.226 13.4276 119.201 13.4366H119.204ZM118.455 13.2413C118.455 13.2413 118.467 13.2413 118.47 13.2413C118.552 13.2413 118.638 13.2413 118.721 13.2413C118.761 13.2413 118.8 13.2353 118.84 13.2293C118.941 13.2083 119.011 13.1542 119.036 13.0521C119.051 12.986 119.051 12.9199 119.036 12.8538C119.018 12.7757 118.972 12.7186 118.889 12.6916C118.861 12.6826 118.834 12.6736 118.806 12.6736C118.69 12.6706 118.574 12.6676 118.458 12.6646C118.458 12.6646 118.458 12.6646 118.455 12.6646V13.2383V13.2413Z" fill="url(#paint14_linear_1033_12744)"/>
</g>
<defs>
<linearGradient id="paint0_linear_1033_12744" x1="-70.8819" y1="22.6199" x2="199.716" y2="20.7318" gradientUnits="userSpaceOnUse">
<stop offset="0.08" stop-color="#770EB9"/>
<stop offset="0.6" stop-color="#00A4C9"/>
<stop offset="0.96" stop-color="#61B90E"/>
</linearGradient>
<linearGradient id="paint1_linear_1033_12744" x1="-70.8819" y1="22.7341" x2="199.719" y2="20.846" gradientUnits="userSpaceOnUse">
<stop offset="0.08" stop-color="#770EB9"/>
<stop offset="0.6" stop-color="#00A4C9"/>
<stop offset="0.96" stop-color="#61B90E"/>
</linearGradient>
<linearGradient id="paint2_linear_1033_12744" x1="-70.882" y1="22.8663" x2="199.719" y2="20.9782" gradientUnits="userSpaceOnUse">
<stop offset="0.08" stop-color="#770EB9"/>
<stop offset="0.6" stop-color="#00A4C9"/>
<stop offset="0.96" stop-color="#61B90E"/>
</linearGradient>
<linearGradient id="paint3_linear_1033_12744" x1="-70.7716" y1="38.4643" x2="199.83" y2="36.5763" gradientUnits="userSpaceOnUse">
<stop offset="0.08" stop-color="#770EB9"/>
<stop offset="0.6" stop-color="#00A4C9"/>
<stop offset="0.96" stop-color="#61B90E"/>
</linearGradient>
<linearGradient id="paint4_linear_1033_12744" x1="-70.7716" y1="38.5225" x2="199.829" y2="36.6375" gradientUnits="userSpaceOnUse">
<stop offset="0.08" stop-color="#770EB9"/>
<stop offset="0.6" stop-color="#00A4C9"/>
<stop offset="0.96" stop-color="#61B90E"/>
</linearGradient>
<linearGradient id="paint5_linear_1033_12744" x1="-70.7718" y1="38.5375" x2="199.83" y2="36.6494" gradientUnits="userSpaceOnUse">
<stop offset="0.08" stop-color="#770EB9"/>
<stop offset="0.6" stop-color="#00A4C9"/>
<stop offset="0.96" stop-color="#61B90E"/>
</linearGradient>
<linearGradient id="paint6_linear_1033_12744" x1="-70.7719" y1="38.5765" x2="199.829" y2="36.6885" gradientUnits="userSpaceOnUse">
<stop offset="0.08" stop-color="#770EB9"/>
<stop offset="0.6" stop-color="#00A4C9"/>
<stop offset="0.96" stop-color="#61B90E"/>
</linearGradient>
<linearGradient id="paint7_linear_1033_12744" x1="-70.7718" y1="38.6055" x2="199.83" y2="36.7174" gradientUnits="userSpaceOnUse">
<stop offset="0.08" stop-color="#770EB9"/>
<stop offset="0.6" stop-color="#00A4C9"/>
<stop offset="0.96" stop-color="#61B90E"/>
</linearGradient>
<linearGradient id="paint8_linear_1033_12744" x1="-70.7717" y1="38.6366" x2="199.83" y2="36.7485" gradientUnits="userSpaceOnUse">
<stop offset="0.08" stop-color="#770EB9"/>
<stop offset="0.6" stop-color="#00A4C9"/>
<stop offset="0.96" stop-color="#61B90E"/>
</linearGradient>
<linearGradient id="paint9_linear_1033_12744" x1="-70.7722" y1="38.6686" x2="199.83" y2="36.7805" gradientUnits="userSpaceOnUse">
<stop offset="0.08" stop-color="#770EB9"/>
<stop offset="0.6" stop-color="#00A4C9"/>
<stop offset="0.96" stop-color="#61B90E"/>
</linearGradient>
<linearGradient id="paint10_linear_1033_12744" x1="-70.7717" y1="38.702" x2="199.83" y2="36.8139" gradientUnits="userSpaceOnUse">
<stop offset="0.08" stop-color="#770EB9"/>
<stop offset="0.6" stop-color="#00A4C9"/>
<stop offset="0.96" stop-color="#61B90E"/>
</linearGradient>
<linearGradient id="paint11_linear_1033_12744" x1="-70.7711" y1="38.7377" x2="199.83" y2="36.8528" gradientUnits="userSpaceOnUse">
<stop offset="0.08" stop-color="#770EB9"/>
<stop offset="0.6" stop-color="#00A4C9"/>
<stop offset="0.96" stop-color="#61B90E"/>
</linearGradient>
<linearGradient id="paint12_linear_1033_12744" x1="-70.8848" y1="22.1812" x2="199.713" y2="20.2931" gradientUnits="userSpaceOnUse">
<stop offset="0.08" stop-color="#770EB9"/>
<stop offset="0.6" stop-color="#00A4C9"/>
<stop offset="0.96" stop-color="#61B90E"/>
</linearGradient>
<linearGradient id="paint13_linear_1033_12744" x1="-70.9402" y1="14.689" x2="199.661" y2="12.8041" gradientUnits="userSpaceOnUse">
<stop offset="0.08" stop-color="#770EB9"/>
<stop offset="0.6" stop-color="#00A4C9"/>
<stop offset="0.96" stop-color="#61B90E"/>
</linearGradient>
<linearGradient id="paint14_linear_1033_12744" x1="-70.9401" y1="14.6412" x2="199.661" y2="12.7531" gradientUnits="userSpaceOnUse">
<stop offset="0.08" stop-color="#770EB9"/>
<stop offset="0.6" stop-color="#00A4C9"/>
<stop offset="0.96" stop-color="#61B90E"/>
</linearGradient>
<clipPath id="clip0_1033_12744">
<rect width="121" height="43" fill="white"/>
</clipPath>
</defs>
</svg>
